<svg xmlns="http://www.w3.org/2000/svg" version="1.0" width="418.000000pt" height="416.000000pt" viewBox="0 0 418.000000 416.000000" preserveAspectRatio="xMidYMid meet">

<g transform="translate(0.000000,416.000000) scale(0.100000,-0.100000)" fill="#008bdb" stroke="none">
<path d="M10 2655 l0 -1505 1505 0 1505 0 -2 1503 -3 1502 -1502 3 -1503 2 0 -1505z m2603 121 c54 -8 104 -20 113 -27 11 -9 14 -32 12 -103 l-3 -91 -235 4 c-257 4 -301 -3 -334 -54 -21 -32 -20 -94 1 -125 28 -40 47 -53 241 -161 269 -151 339 -223 362 -376 13 -80 1 -169 -30 -238 -41 -93 -140 -167 -265 -200 -107 -27 -416 -18 -523 16 l-33 11 3 96 3 97 242 0 c230 0 243 1 270 21 40 30 68 101 59 150 -11 57 -60 98 -267 222 -215 128 -276 179 -316 260 -25 51 -28 67 -28 162 0 89 4 113 24 157 39 87 123 149 239 177 76 19 339 20 465 2z m-865 -109 c3 -97 3 -97 -23 -107 -15 -6 -96 -10 -181 -10 l-154 0 0 -562 c0 -338 -4 -569 -10 -578 -7 -12 -33 -15 -125 -15 -92 0 -118 3 -125 15 -6 9 -10 240 -10 578 l0 562 -154 0 c-85 0 -166 4 -180 10 -25 9 -26 12 -26 103 0 52 3 97 7 100 3 4 225 6 492 5 l486 -3 3 -98z" fill="#008bdb"/>
<path d="M3330 2855 l0 -125 300 0 300 0 0 -1220 0 -1220 -1240 0 -1240 0 0 280 0 280 -130 0 -130 0 0 -425 0 -425 1490 0 1490 0 0 1490 0 1490 -420 0 -420 0 0 -125z" fill="#008bdb"/>
</g>
</svg>